<?xml version="1.0" encoding="UTF-8"?>
<svg width="32px" height="32px" viewBox="0 0 32 32" version="1.1" xmlns="http://www.w3.org/2000/svg" xmlns:xlink="http://www.w3.org/1999/xlink">
    <!-- Generator: Sketch 52.6 (67491) - http://www.bohemiancoding.com/sketch -->
    <title>dribbble</title>
    <desc>Created with Sketch.</desc>
    <g id="Home" stroke="none" stroke-width="1" fill="none" fill-rule="evenodd">
        <g id="1440" transform="translate(-121.000000, -5956.000000)">
            <g id="Group-11" transform="translate(0.000000, 5887.000000)">
                <g id="Group-6" transform="translate(86.000000, 69.000000)">
                    <g id="dribbble" transform="translate(35.000000, 0.000000)">
                        <rect id="Rectangle" fill="#FFFFFF" fill-rule="nonzero" x="0" y="0" width="32" height="32"></rect>
                        <path d="M15.5,6 C9.70337,6 5,10.70337 5,16.5 C5,22.29663 9.70337,27 15.5,27 C21.285248,27 26,22.29663 26,16.5 C26,10.70337 21.285248,6 15.5,6 Z M22.43546,10.840017 C23.688173,12.366045 24.439805,14.313459 24.46259,16.420284 C24.16649,16.363332 21.205532,15.759771 18.22181,16.135566 C18.153476,15.987537 18.096524,15.828084 18.028211,15.668652 C17.845994,15.235905 17.640992,14.791755 17.436011,14.37039 C20.738618,13.026579 22.241861,11.090568 22.43546,10.840017 Z M15.5,7.5488067 C17.77766,7.5488067 19.861721,8.402925 21.44468,9.803688 C21.285248,10.031454 19.930034,11.8422 16.741331,13.037961 C15.272234,10.338936 13.643705,8.12961 13.393175,7.787961 C14.06507,7.6285248 14.771153,7.5488067 15.5,7.5488067 Z M11.68493,8.391543 C11.924078,8.710407 13.51844,10.931136 15.010301,13.573209 C10.819415,14.689254 7.118228,14.66649 6.7196312,14.666525 C7.300424,11.887749 9.179504,9.575922 11.68493,8.391543 Z M6.5260301,16.511382 C6.5260301,16.420284 6.5260301,16.329186 6.5260301,16.238067 C6.9132323,16.249449 11.263565,16.306401 15.739148,14.96259 C16.001081,15.463671 16.240229,15.976134 16.467995,16.488618 C16.354112,16.522785 16.228847,16.556952 16.114964,16.591098 C11.491331,18.08298 9.031454,22.159983 8.826473,22.501632 C7.402925,20.918652 6.5260301,18.811827 6.5260301,16.511382 Z M15.5,25.473972 C13.427342,25.473972 11.514095,24.767889 9.999449,23.58351 C10.158902,23.253264 11.98103,19.745655 17.03741,17.980479 C17.060195,17.969097 17.071577,17.969097 17.094362,17.957694 C18.358457,21.226134 18.870941,23.970708 19.007588,24.756507 C17.92571,25.223421 16.741331,25.473972 15.5,25.473972 Z M20.49947,23.936562 C20.408351,23.389911 19.930055,20.770602 18.757058,17.547732 C21.569966,17.103582 24.029822,17.832429 24.337304,17.93493 C23.950106,20.428953 22.515176,22.581348 20.49947,23.936562 Z" id="Shape" fill="#555659"></path>
                    </g>
                </g>
            </g>
        </g>
    </g>
</svg>