<?xml version="1.0" encoding="UTF-8"?>
<svg width="32px" height="32px" viewBox="0 0 32 32" version="1.1" xmlns="http://www.w3.org/2000/svg" xmlns:xlink="http://www.w3.org/1999/xlink">
    <!-- Generator: Sketch 52.6 (67491) - http://www.bohemiancoding.com/sketch -->
    <title>github</title>
    <desc>Created with Sketch.</desc>
    <g id="Home" stroke="none" stroke-width="1" fill="none" fill-rule="evenodd">
        <g id="1440" transform="translate(-86.000000, -5956.000000)">
            <g id="Group-11" transform="translate(0.000000, 5887.000000)">
                <g id="Group-6" transform="translate(86.000000, 69.000000)">
                    <g id="github">
                        <rect id="Rectangle" fill="#FFFFFF" fill-rule="nonzero" x="0" y="0" width="32" height="32"></rect>
                        <g transform="translate(4.000000, 5.000000)" fill="#555659" id="Path">
                            <path d="M21.4929564,5.77076777 C20.4628881,3.99548836 19.0656663,2.58999717 17.3009232,1.55397717 C15.5359174,0.517904319 13.6090572,0 11.5189769,0 C9.42915915,0 7.5016686,0.518062845 5.73703054,1.55397717 C3.97212982,2.58994433 2.57496053,3.99548836 1.54489226,5.77076777 C0.514981599,7.54599434 0,9.48455549 0,11.5863984 C0,14.1111885 0.732310873,16.3815445 2.19730035,18.3980476 C3.66213223,20.4147092 5.55447816,21.8101604 7.87418054,22.5845598 C8.14420047,22.634971 8.34408877,22.599514 8.47405556,22.4790872 C8.60407489,22.3585017 8.66900575,22.2074793 8.66900575,22.0266541 C8.66900575,21.9964813 8.66643163,21.725032 8.66144099,21.2119891 C8.65629275,20.6989463 8.65387623,20.2513746 8.65387623,19.8694856 L8.30889162,19.9295141 C8.08893569,19.9700439 7.81145606,19.9872176 7.47645273,19.9823561 C7.141607,19.9776532 6.79399573,19.9423547 6.43409173,19.876725 C6.07403013,19.8116765 5.73913187,19.6608126 5.42913427,19.4244504 C5.11929428,19.1880882 4.89933835,18.8786983 4.76931902,18.4967565 L4.61933713,18.1495846 C4.51936672,17.9184537 4.36197767,17.6616945 4.14695985,17.3802581 C3.93194203,17.0985575 3.71450769,16.9075865 3.49455176,16.8070282 L3.38953817,16.7314113 C3.31956413,16.6811586 3.25463327,16.6205488 3.19458798,16.5502162 C3.13459523,16.4798835 3.08967946,16.4094979 3.05968308,16.3390067 C3.02963417,16.2684627 3.05453484,16.2106007 3.13464776,16.1652094 C3.21476068,16.1198182 3.35954179,16.0977831 3.56962151,16.0977831 L3.86948022,16.1428573 C4.06947358,16.1831757 4.31685177,16.3036026 4.61192997,16.5048777 C4.90685058,16.7059943 5.14929065,16.9674565 5.33930274,17.2891585 C5.56939754,17.7016431 5.84661451,18.0159472 6.17174162,18.2322295 C6.49660607,18.4485117 6.82414971,18.5564679 7.15405733,18.5564679 C7.48396496,18.5564679 7.76890428,18.5313151 8.00898037,18.4812738 C8.2487938,18.4309682 8.4737929,18.3553513 8.68387261,18.2548458 C8.77386174,17.5806878 9.01887594,17.0627834 9.41870507,16.700763 C8.84882642,16.6405231 8.33647148,16.5497934 7.88137757,16.4291552 C7.42654632,16.3083584 6.95653302,16.1123146 6.47165287,15.8404954 C5.98651005,15.5690461 5.58405427,15.2319671 5.26418046,14.8298396 C4.94425412,14.4275007 4.68169388,13.8992922 4.47686747,13.2456896 C4.271936,12.5918229 4.169444,11.8375564 4.169444,10.9826787 C4.169444,9.7654635 4.56449262,8.72965486 5.35443226,7.8746715 C4.98438938,6.95955396 5.01932386,5.93367962 5.45934078,4.79715415 C5.74932328,4.70653014 6.17935892,4.77453778 6.74923757,5.00075433 C7.31922128,5.22707656 7.73654392,5.42095381 8.00162574,5.58169914 C8.26670757,5.74239162 8.47909874,5.87856542 8.63911444,5.98900518 C9.56921229,5.72759586 10.5290438,5.59686479 11.5188718,5.59686479 C12.5086997,5.59686479 13.4687414,5.72759586 14.3988918,5.98900518 L14.968823,5.6270904 C15.3585658,5.38560252 15.8188079,5.16430028 16.3484462,4.96313083 C16.8783998,4.76206707 17.2836398,4.70668867 17.5637461,4.79731267 C18.0135341,5.93389098 18.0536169,6.95971249 17.6834689,7.87483003 C18.473356,8.72981338 18.8685622,9.76588623 18.8685622,10.9828372 C18.8685622,11.8377149 18.7657025,12.5943593 18.5610862,13.253246 C18.3562073,13.9122385 18.0913881,14.4399185 17.7665237,14.837396 C17.4412915,15.2348206 17.0362616,15.5692575 16.5513814,15.840654 C16.0663962,16.1122618 15.5962253,16.3083055 15.1413941,16.4291023 C14.6863527,16.5498991 14.1739978,16.6406816 13.6041191,16.7010272 C14.1238812,17.1534603 14.3838148,17.8676198 14.3838148,18.8431885 L14.3838148,22.0262313 C14.3838148,22.2070566 14.4463292,22.3580262 14.5714629,22.4786644 C14.6964391,22.5990913 14.8938058,22.6345483 15.1638257,22.5840842 C17.4838433,21.8097905 19.3761892,20.4142865 20.8409686,18.3976249 C22.3055903,16.3811218 23.0381638,14.1107658 23.0381638,11.5859756 C23.0376385,9.48439696 22.5223942,7.54599434 21.4929564,5.77076777 Z"></path>
                        </g>
                    </g>
                </g>
            </g>
        </g>
    </g>
</svg>