<?xml version="1.0" encoding="UTF-8"?>
<svg width="32px" height="32px" viewBox="0 0 32 32" version="1.1" xmlns="http://www.w3.org/2000/svg" xmlns:xlink="http://www.w3.org/1999/xlink">
    <!-- Generator: Sketch 52.6 (67491) - http://www.bohemiancoding.com/sketch -->
    <title>linkedin</title>
    <desc>Created with Sketch.</desc>
    <g id="Home" stroke="none" stroke-width="1" fill="none" fill-rule="evenodd">
        <g id="1440" transform="translate(-155.000000, -5956.000000)" fill-rule="nonzero">
            <g id="Group-11" transform="translate(0.000000, 5887.000000)">
                <g id="Group-6" transform="translate(86.000000, 69.000000)">
                    <g id="linkedin" transform="translate(69.000000, 0.000000)">
                        <rect id="Rectangle" fill="#FFFFFF" x="0" y="0" width="32" height="32"></rect>
                        <path d="M27.1052632,17.2724895 L27.1052632,25 L22.3835137,25 L22.3835137,17.7900316 C22.3835137,15.9788288 21.7005636,14.7427537 19.9914468,14.7427537 C18.6867529,14.7427537 17.9103287,15.5757777 17.5687512,16.3815883 C17.4441873,16.6696624 17.4121244,17.0706238 17.4121244,17.4738693 L17.4121244,25 L12.6887872,25 C12.6887872,25 12.7524008,12.78868 12.6887872,11.5234962 L17.4116634,11.5234962 L17.4116634,13.4337367 C17.4020855,13.4480238 17.3896394,13.4634285 17.3806249,13.4772783 L17.4116634,13.4772783 L17.4116634,13.4337367 C18.0391437,12.5167882 19.1597576,11.2068966 21.6680397,11.2068966 C24.7756319,11.206848 27.1052632,13.1330277 27.1052632,17.2724895 Z M7.65912321,5 C6.05151117,5 5,5.99264677 5,7.2980111 C5,8.57492911 6.02108945,9.59770115 7.59675105,9.59770115 L7.62814096,9.59770115 C9.26688813,9.59770115 10.2860412,8.57512099 10.2860412,7.2980111 C10.2551609,5.99264677 9.26688813,5 7.65912321,5 Z M5.2402746,25 L10.0457666,25 L10.0457666,11.4367816 L5.2402746,11.4367816 L5.2402746,25 Z" id="LinkedIn" fill="#555659"></path>
                    </g>
                </g>
            </g>
        </g>
    </g>
</svg>