<?xml version="1.0" encoding="UTF-8"?>
<svg width="88px" height="15px" viewBox="0 0 88 15" version="1.1" xmlns="http://www.w3.org/2000/svg" xmlns:xlink="http://www.w3.org/1999/xlink">
    <!-- Generator: Sketch 48.2 (47327) - http://www.bohemiancoding.com/sketch -->
    <title>Group</title>
    <desc>Created with Sketch.</desc>
    <defs></defs>
    <g id="1440" stroke="none" stroke-width="1" fill="none" fill-rule="evenodd" transform="translate(-91.000000, -66.000000)" opacity="0.900000036">
        <g id="hero" transform="translate(90.000000, 57.000000)" fill="#2B2C30">
            <g id="nav" transform="translate(1.000000, 0.000000)">
                <g id="Group" transform="translate(0.000000, 9.000000)">
                    <path d="M3.5,3.28 L3.5,6 L7.94,6 L7.94,8.62 L3.5,8.62 L3.5,14 L0.26,14 L0.26,0.66 L7.94,0.66 L7.94,3.28 L3.5,3.28 Z M17.02,0.4 C20.96,0.4 23.92,3.38 23.92,7.36 C23.92,11.18 20.8,14.26 16.94,14.26 C12.96,14.26 9.80000002,11.22 9.80000002,7.38 C9.80000002,5.44 10.58,3.64 12.04,2.26 C13.32,1.06 15.06,0.4 17.02,0.4 Z M16.9,3.4 C14.72,3.4 13.1,5.08 13.1,7.34 C13.1,9.54 14.76,11.26 16.88,11.26 C18.96,11.26 20.64,9.54 20.64,7.4 C20.64,5.12 19.04,3.4 16.9,3.4 Z M29.7,8.84 L29.7,14 L26.46,14 L26.46,0.66 L30.78,0.66 C32.54,0.66 33.82,0.98 34.7,1.66 C35.62,2.38 36.14,3.58 36.14,5.04 C36.14,7.06 35.28,8.42 33.56,9.1 L36.5,14 L32.62,14 L29.7,8.84 Z M29.7,7.02 L30.74,7.02 C32.08,7.02 32.86,6.34 32.86,5.18 C32.86,4.06 32.1,3.32 30.94,3.32 L29.7,3.32 L29.7,7.02 Z M44.1000001,3.28 L44.1000001,14 L40.8600001,14 L40.8600001,3.28 L37.7800001,3.28 L37.7800001,0.66 L47.1600001,0.66 L47.1600001,3.28 L44.1000001,3.28 Z M55.8000001,12.08 L51.0800001,12.08 L50.5000001,14 L47.0400001,14 L51.4400001,0.66 L55.5600001,0.66 L59.9400001,14 L56.3800001,14 L55.8000001,12.08 Z M55.8000001,12.08 L53.4400001,4.48 L51.0800001,12.08 L55.8000001,12.08 Z M65.0400001,6.4 L65.0400001,14 L61.8000001,14 L61.8000001,0.66 L65.0400001,0.66 L69.9000001,8.16 L69.9000001,0.66 L73.1400001,0.66 L73.1400001,14 L69.9000001,14 L65.0400001,6.4 Z M83.8000001,12.08 L79.0800001,12.08 L78.5000001,14 L75.0400001,14 L79.4400001,0.66 L83.5600001,0.66 L87.9400001,14 L84.3800001,14 L83.8000001,12.08 Z M83.8000001,12.08 L81.4400001,4.48 L79.0800001,12.08 L83.8000001,12.08 Z" id="FORTANA"></path>
                </g>
            </g>
        </g>
    </g>
</svg>